<mxfile host="65bd71144e">
    <diagram id="MI9Qt4QS5kz0zJy0i7TY" name="第 1 页">
        <mxGraphModel dx="3521" dy="1165" grid="1" gridSize="10" guides="1" tooltips="1" connect="1" arrows="1" fold="1" page="1" pageScale="1" pageWidth="4681" pageHeight="3300" math="0" shadow="0">
            <root>
                <mxCell id="0"/>
                <mxCell id="1" parent="0"/>
                <mxCell id="2" value="用户连接钱包" style="rounded=0;whiteSpace=wrap;html=1;fillColor=#dae8fc;strokeColor=#6c8ebf;" vertex="1" parent="1">
                    <mxGeometry x="80" y="410" width="120" height="60" as="geometry"/>
                </mxCell>
                <mxCell id="3" value="" style="endArrow=classic;html=1;exitX=1;exitY=0.5;exitDx=0;exitDy=0;entryX=0;entryY=0.5;entryDx=0;entryDy=0;" edge="1" parent="1" source="2" target="4">
                    <mxGeometry width="50" height="50" relative="1" as="geometry">
                        <mxPoint x="390" y="500" as="sourcePoint"/>
                        <mxPoint x="270" y="440" as="targetPoint"/>
                    </mxGeometry>
                </mxCell>
                <mxCell id="4" value="选择钱包" style="rhombus;whiteSpace=wrap;html=1;fillColor=#fff2cc;strokeColor=#d6b656;" vertex="1" parent="1">
                    <mxGeometry x="280" y="400" width="80" height="80" as="geometry"/>
                </mxCell>
                <mxCell id="5" value="" style="endArrow=classic;html=1;exitX=0.5;exitY=0;exitDx=0;exitDy=0;entryX=0;entryY=1;entryDx=0;entryDy=0;" edge="1" parent="1" source="4" target="14">
                    <mxGeometry width="50" height="50" relative="1" as="geometry">
                        <mxPoint x="380" y="420" as="sourcePoint"/>
                        <mxPoint x="360" y="320" as="targetPoint"/>
                    </mxGeometry>
                </mxCell>
                <mxCell id="8" value="" style="endArrow=classic;html=1;exitX=0.5;exitY=1;exitDx=0;exitDy=0;entryX=0;entryY=0;entryDx=0;entryDy=0;" edge="1" parent="1" source="4" target="15">
                    <mxGeometry width="50" height="50" relative="1" as="geometry">
                        <mxPoint x="360" y="440" as="sourcePoint"/>
                        <mxPoint x="360" y="560" as="targetPoint"/>
                    </mxGeometry>
                </mxCell>
                <mxCell id="10" value="学生" style="text;html=1;align=center;verticalAlign=middle;resizable=0;points=[];autosize=1;strokeColor=none;fillColor=none;" vertex="1" parent="1">
                    <mxGeometry x="285" y="348" width="50" height="30" as="geometry"/>
                </mxCell>
                <mxCell id="11" value="讲师" style="text;html=1;align=center;verticalAlign=middle;resizable=0;points=[];autosize=1;strokeColor=none;fillColor=none;" vertex="1" parent="1">
                    <mxGeometry x="285" y="500" width="50" height="30" as="geometry"/>
                </mxCell>
                <mxCell id="14" value="浏览课程市场" style="rounded=0;whiteSpace=wrap;html=1;" vertex="1" parent="1">
                    <mxGeometry x="360" y="250" width="120" height="60" as="geometry"/>
                </mxCell>
                <mxCell id="15" value="创建课程" style="whiteSpace=wrap;html=1;" vertex="1" parent="1">
                    <mxGeometry x="360" y="570" width="120" height="60" as="geometry"/>
                </mxCell>
                <mxCell id="16" value="选择课程" style="whiteSpace=wrap;html=1;" vertex="1" parent="1">
                    <mxGeometry x="600" y="250" width="120" height="60" as="geometry"/>
                </mxCell>
                <mxCell id="17" value="" style="edgeStyle=none;orthogonalLoop=1;jettySize=auto;html=1;exitX=1;exitY=0.5;exitDx=0;exitDy=0;entryX=0;entryY=0.5;entryDx=0;entryDy=0;" edge="1" parent="1" source="14" target="16">
                    <mxGeometry width="100" relative="1" as="geometry">
                        <mxPoint x="500" y="279.38" as="sourcePoint"/>
                        <mxPoint x="600" y="279.38" as="targetPoint"/>
                        <Array as="points"/>
                    </mxGeometry>
                </mxCell>
                <mxCell id="18" value="" style="edgeStyle=none;orthogonalLoop=1;jettySize=auto;html=1;exitX=1;exitY=0.5;exitDx=0;exitDy=0;entryX=0;entryY=0.5;entryDx=0;entryDy=0;" edge="1" parent="1" source="16" target="19">
                    <mxGeometry width="100" relative="1" as="geometry">
                        <mxPoint x="740" y="280" as="sourcePoint"/>
                        <mxPoint x="840" y="280" as="targetPoint"/>
                        <Array as="points"/>
                    </mxGeometry>
                </mxCell>
                <mxCell id="19" value="查看课程详情" style="whiteSpace=wrap;html=1;" vertex="1" parent="1">
                    <mxGeometry x="850" y="250" width="120" height="60" as="geometry"/>
                </mxCell>
                <mxCell id="20" value="" style="edgeStyle=none;orthogonalLoop=1;jettySize=auto;html=1;exitX=1;exitY=0.5;exitDx=0;exitDy=0;entryX=0;entryY=0.5;entryDx=0;entryDy=0;" edge="1" parent="1" source="19" target="21">
                    <mxGeometry width="100" relative="1" as="geometry">
                        <mxPoint x="990" y="279.38" as="sourcePoint"/>
                        <mxPoint x="1090" y="279.38" as="targetPoint"/>
                        <Array as="points"/>
                    </mxGeometry>
                </mxCell>
                <mxCell id="21" value="检查YDT余额" style="rhombus;whiteSpace=wrap;html=1;fillColor=#fff2cc;strokeColor=#d6b656;" vertex="1" parent="1">
                    <mxGeometry x="1110" y="240" width="80" height="80" as="geometry"/>
                </mxCell>
                <mxCell id="22" value="" style="edgeStyle=segmentEdgeStyle;endArrow=classic;html=1;curved=0;rounded=0;endSize=8;startSize=8;sourcePerimeterSpacing=0;targetPerimeterSpacing=0;exitX=1;exitY=0.5;exitDx=0;exitDy=0;entryX=0;entryY=0.5;entryDx=0;entryDy=0;" edge="1" parent="1" source="21" target="23">
                    <mxGeometry width="100" relative="1" as="geometry">
                        <mxPoint x="1200" y="280" as="sourcePoint"/>
                        <mxPoint x="1320" y="120" as="targetPoint"/>
                        <Array as="points">
                            <mxPoint x="1220" y="280"/>
                            <mxPoint x="1220" y="120"/>
                        </Array>
                    </mxGeometry>
                </mxCell>
                <mxCell id="23" value="余额不足" style="whiteSpace=wrap;html=1;" vertex="1" parent="1">
                    <mxGeometry x="1330" y="90" width="120" height="60" as="geometry"/>
                </mxCell>
                <mxCell id="24" value="" style="edgeStyle=none;orthogonalLoop=1;jettySize=auto;html=1;exitX=1;exitY=0.5;exitDx=0;exitDy=0;entryX=0;entryY=0.5;entryDx=0;entryDy=0;" edge="1" parent="1" source="23" target="25">
                    <mxGeometry width="100" relative="1" as="geometry">
                        <mxPoint x="1470" y="119.36999999999999" as="sourcePoint"/>
                        <mxPoint x="1570" y="119.36999999999999" as="targetPoint"/>
                        <Array as="points"/>
                    </mxGeometry>
                </mxCell>
                <mxCell id="25" value="进行swap YDT" style="whiteSpace=wrap;html=1;" vertex="1" parent="1">
                    <mxGeometry x="1540" y="90" width="120" height="60" as="geometry"/>
                </mxCell>
                <mxCell id="27" value="余额充足" style="whiteSpace=wrap;html=1;" vertex="1" parent="1">
                    <mxGeometry x="1330" y="330" width="120" height="60" as="geometry"/>
                </mxCell>
                <mxCell id="28" value="" style="edgeStyle=none;orthogonalLoop=1;jettySize=auto;html=1;exitX=1;exitY=0.5;exitDx=0;exitDy=0;entryX=0;entryY=0.5;entryDx=0;entryDy=0;" edge="1" parent="1" source="27" target="31">
                    <mxGeometry width="100" relative="1" as="geometry">
                        <mxPoint x="1460" y="359.37" as="sourcePoint"/>
                        <mxPoint x="1560" y="359.37" as="targetPoint"/>
                        <Array as="points"/>
                    </mxGeometry>
                </mxCell>
                <mxCell id="29" value="" style="edgeStyle=segmentEdgeStyle;endArrow=classic;html=1;curved=0;rounded=0;endSize=8;startSize=8;sourcePerimeterSpacing=0;targetPerimeterSpacing=0;entryX=0;entryY=0.5;entryDx=0;entryDy=0;" edge="1" parent="1" target="27">
                    <mxGeometry width="100" relative="1" as="geometry">
                        <mxPoint x="1180" y="280" as="sourcePoint"/>
                        <mxPoint x="1320" y="360" as="targetPoint"/>
                        <Array as="points">
                            <mxPoint x="1220" y="280"/>
                            <mxPoint x="1220" y="360"/>
                        </Array>
                    </mxGeometry>
                </mxCell>
                <mxCell id="31" value="授权合约使用YDT" style="whiteSpace=wrap;html=1;" vertex="1" parent="1">
                    <mxGeometry x="1540" y="330" width="120" height="60" as="geometry"/>
                </mxCell>
                <mxCell id="32" value="" style="edgeStyle=none;orthogonalLoop=1;jettySize=auto;html=1;exitX=1;exitY=0.5;exitDx=0;exitDy=0;entryX=0;entryY=0.5;entryDx=0;entryDy=0;" edge="1" parent="1" source="31" target="34">
                    <mxGeometry width="100" relative="1" as="geometry">
                        <mxPoint x="1700" y="359.38" as="sourcePoint"/>
                        <mxPoint x="1800" y="359.38" as="targetPoint"/>
                        <Array as="points"/>
                    </mxGeometry>
                </mxCell>
                <mxCell id="34" value="调用purchaseCourse合约" style="whiteSpace=wrap;html=1;" vertex="1" parent="1">
                    <mxGeometry x="1750" y="330" width="120" height="60" as="geometry"/>
                </mxCell>
                <mxCell id="35" value="" style="edgeStyle=none;orthogonalLoop=1;jettySize=auto;html=1;exitX=1;exitY=0.5;exitDx=0;exitDy=0;entryX=0;entryY=0.5;entryDx=0;entryDy=0;" edge="1" parent="1" source="34" target="37">
                    <mxGeometry width="100" relative="1" as="geometry">
                        <mxPoint x="1940" y="362.37" as="sourcePoint"/>
                        <mxPoint x="2040" y="362.37" as="targetPoint"/>
                        <Array as="points"/>
                    </mxGeometry>
                </mxCell>
                <mxCell id="37" value="验证并转账" style="rhombus;whiteSpace=wrap;html=1;fillColor=#fff2cc;strokeColor=#d6b656;" vertex="1" parent="1">
                    <mxGeometry x="1980" y="320" width="80" height="80" as="geometry"/>
                </mxCell>
                <mxCell id="38" value="" style="edgeStyle=segmentEdgeStyle;endArrow=classic;html=1;curved=0;rounded=0;endSize=8;startSize=8;sourcePerimeterSpacing=0;targetPerimeterSpacing=0;exitX=0.5;exitY=0;exitDx=0;exitDy=0;" edge="1" parent="1" source="37">
                    <mxGeometry width="100" relative="1" as="geometry">
                        <mxPoint x="2150" y="330" as="sourcePoint"/>
                        <mxPoint x="2220" y="230" as="targetPoint"/>
                        <Array as="points">
                            <mxPoint x="2140" y="320"/>
                            <mxPoint x="2140" y="230"/>
                        </Array>
                    </mxGeometry>
                </mxCell>
                <mxCell id="39" value="更新购买记录" style="whiteSpace=wrap;html=1;" vertex="1" parent="1">
                    <mxGeometry x="2240" y="200" width="120" height="60" as="geometry"/>
                </mxCell>
                <mxCell id="40" value="成功" style="text;html=1;align=center;verticalAlign=middle;resizable=0;points=[];autosize=1;strokeColor=none;fillColor=none;" vertex="1" parent="1">
                    <mxGeometry x="2150" y="200" width="50" height="30" as="geometry"/>
                </mxCell>
                <mxCell id="41" value="" style="edgeStyle=segmentEdgeStyle;endArrow=classic;html=1;curved=0;rounded=0;endSize=8;startSize=8;sourcePerimeterSpacing=0;targetPerimeterSpacing=0;entryX=0;entryY=0.5;entryDx=0;entryDy=0;" edge="1" parent="1" target="42">
                    <mxGeometry width="100" relative="1" as="geometry">
                        <mxPoint x="2360" y="200" as="sourcePoint"/>
                        <mxPoint x="2460" y="120" as="targetPoint"/>
                        <Array as="points">
                            <mxPoint x="2410" y="200"/>
                            <mxPoint x="2410" y="120"/>
                        </Array>
                    </mxGeometry>
                </mxCell>
                <mxCell id="42" value="获取课程访问权限" style="whiteSpace=wrap;html=1;" vertex="1" parent="1">
                    <mxGeometry x="2490" y="90" width="120" height="60" as="geometry"/>
                </mxCell>
                <mxCell id="43" value="" style="edgeStyle=none;orthogonalLoop=1;jettySize=auto;html=1;entryX=0;entryY=0.5;entryDx=0;entryDy=0;" edge="1" parent="1" target="44">
                    <mxGeometry width="100" relative="1" as="geometry">
                        <mxPoint x="2360" y="230" as="sourcePoint"/>
                        <mxPoint x="2460" y="230" as="targetPoint"/>
                        <Array as="points"/>
                    </mxGeometry>
                </mxCell>
                <mxCell id="44" value="自动分配收益" style="whiteSpace=wrap;html=1;" vertex="1" parent="1">
                    <mxGeometry x="2490" y="200" width="120" height="60" as="geometry"/>
                </mxCell>
                <mxCell id="46" value="" style="edgeStyle=segmentEdgeStyle;endArrow=classic;html=1;curved=0;rounded=0;endSize=8;startSize=8;sourcePerimeterSpacing=0;targetPerimeterSpacing=0;" edge="1" parent="1">
                    <mxGeometry width="100" relative="1" as="geometry">
                        <mxPoint x="2610" y="260" as="sourcePoint"/>
                        <mxPoint x="2710" y="300" as="targetPoint"/>
                        <Array as="points">
                            <mxPoint x="2660" y="300"/>
                        </Array>
                    </mxGeometry>
                </mxCell>
                <mxCell id="49" value="讲师钱包" style="shape=cylinder3;whiteSpace=wrap;html=1;boundedLbl=1;backgroundOutline=1;size=15;fillColor=#dae8fc;strokeColor=#6c8ebf;" vertex="1" parent="1">
                    <mxGeometry x="2720" y="270" width="50" height="68" as="geometry"/>
                </mxCell>
                <mxCell id="50" value="" style="edgeStyle=none;orthogonalLoop=1;jettySize=auto;html=1;exitX=1;exitY=0.25;exitDx=0;exitDy=0;" edge="1" parent="1" source="44">
                    <mxGeometry width="100" relative="1" as="geometry">
                        <mxPoint x="2620" y="214.38" as="sourcePoint"/>
                        <mxPoint x="2710" y="214" as="targetPoint"/>
                        <Array as="points"/>
                    </mxGeometry>
                </mxCell>
                <mxCell id="51" value="平台钱包" style="shape=cylinder3;whiteSpace=wrap;html=1;boundedLbl=1;backgroundOutline=1;size=15;fillColor=#d5e8d4;strokeColor=#82b366;" vertex="1" parent="1">
                    <mxGeometry x="2720" y="185" width="50" height="65" as="geometry"/>
                </mxCell>
                <mxCell id="52" value="" style="edgeStyle=none;orthogonalLoop=1;jettySize=auto;html=1;exitX=1;exitY=0.5;exitDx=0;exitDy=0;entryX=0;entryY=0.5;entryDx=0;entryDy=0;" edge="1" parent="1" source="42" target="53">
                    <mxGeometry width="100" relative="1" as="geometry">
                        <mxPoint x="2620" y="119.36999999999999" as="sourcePoint"/>
                        <mxPoint x="2720" y="119.36999999999999" as="targetPoint"/>
                        <Array as="points"/>
                    </mxGeometry>
                </mxCell>
                <mxCell id="61" value="" style="edgeStyle=none;html=1;" edge="1" parent="1" source="53" target="51">
                    <mxGeometry relative="1" as="geometry"/>
                </mxCell>
                <mxCell id="53" value="进入我的课程" style="whiteSpace=wrap;html=1;" vertex="1" parent="1">
                    <mxGeometry x="2685" y="90" width="120" height="60" as="geometry"/>
                </mxCell>
                <mxCell id="54" value="" style="edgeStyle=none;orthogonalLoop=1;jettySize=auto;html=1;entryX=0;entryY=0.5;entryDx=0;entryDy=0;" edge="1" parent="1" target="55">
                    <mxGeometry width="100" relative="1" as="geometry">
                        <mxPoint x="2805" y="119.38" as="sourcePoint"/>
                        <mxPoint x="2905" y="119.38" as="targetPoint"/>
                        <Array as="points"/>
                    </mxGeometry>
                </mxCell>
                <mxCell id="55" value="验证购买权限" style="whiteSpace=wrap;html=1;" vertex="1" parent="1">
                    <mxGeometry x="2870" y="90" width="120" height="60" as="geometry"/>
                </mxCell>
                <mxCell id="56" value="从IPFS加载内容" style="whiteSpace=wrap;html=1;" vertex="1" parent="1">
                    <mxGeometry x="3070" y="90" width="120" height="60" as="geometry"/>
                </mxCell>
                <mxCell id="57" value="" style="edgeStyle=none;orthogonalLoop=1;jettySize=auto;html=1;entryX=0;entryY=0.5;entryDx=0;entryDy=0;exitX=1;exitY=0.5;exitDx=0;exitDy=0;" edge="1" parent="1" source="55" target="56">
                    <mxGeometry width="100" relative="1" as="geometry">
                        <mxPoint x="3000" y="119.38" as="sourcePoint"/>
                        <mxPoint x="3100" y="119.38" as="targetPoint"/>
                        <Array as="points"/>
                    </mxGeometry>
                </mxCell>
                <mxCell id="58" value="" style="edgeStyle=none;orthogonalLoop=1;jettySize=auto;html=1;entryX=0;entryY=0.5;entryDx=0;entryDy=0;" edge="1" parent="1" target="59">
                    <mxGeometry width="100" relative="1" as="geometry">
                        <mxPoint x="3190" y="119.38" as="sourcePoint"/>
                        <mxPoint x="3290" y="119.38" as="targetPoint"/>
                        <Array as="points"/>
                    </mxGeometry>
                </mxCell>
                <mxCell id="59" value="开始学习" style="whiteSpace=wrap;html=1;" vertex="1" parent="1">
                    <mxGeometry x="3240" y="90" width="120" height="60" as="geometry"/>
                </mxCell>
                <mxCell id="60" value="落库" style="shape=cylinder3;whiteSpace=wrap;html=1;boundedLbl=1;backgroundOutline=1;size=15;fillColor=#f8cecc;strokeColor=#b85450;" vertex="1" parent="1">
                    <mxGeometry x="3120" y="390" width="60" height="80" as="geometry"/>
                </mxCell>
                <mxCell id="62" value="" style="edgeStyle=none;orthogonalLoop=1;jettySize=auto;html=1;exitX=0.5;exitY=1;exitDx=0;exitDy=0;entryX=0.5;entryY=0;entryDx=0;entryDy=0;" edge="1" parent="1" source="59" target="63">
                    <mxGeometry width="100" relative="1" as="geometry">
                        <mxPoint x="3240" y="210" as="sourcePoint"/>
                        <mxPoint x="3300" y="220" as="targetPoint"/>
                        <Array as="points"/>
                    </mxGeometry>
                </mxCell>
                <mxCell id="63" value="记录学习记录" style="whiteSpace=wrap;html=1;" vertex="1" parent="1">
                    <mxGeometry x="3240" y="200" width="120" height="60" as="geometry"/>
                </mxCell>
                <mxCell id="64" value="" style="edgeStyle=none;orthogonalLoop=1;jettySize=auto;html=1;exitX=1;exitY=0.5;exitDx=0;exitDy=0;entryX=0;entryY=0.5;entryDx=0;entryDy=0;" edge="1" parent="1" source="63" target="65">
                    <mxGeometry width="100" relative="1" as="geometry">
                        <mxPoint x="3310" y="350" as="sourcePoint"/>
                        <mxPoint x="3430" y="230" as="targetPoint"/>
                        <Array as="points"/>
                    </mxGeometry>
                </mxCell>
                <mxCell id="65" value="学生流程结束" style="rounded=1;whiteSpace=wrap;html=1;fillColor=#ffe6cc;strokeColor=#d79b00;" vertex="1" parent="1">
                    <mxGeometry x="3450" y="200" width="120" height="60" as="geometry"/>
                </mxCell>
                <mxCell id="66" value="" style="edgeStyle=none;orthogonalLoop=1;jettySize=auto;html=1;exitX=0;exitY=1;exitDx=0;exitDy=0;entryX=0.855;entryY=0;entryDx=0;entryDy=4.35;entryPerimeter=0;" edge="1" parent="1" source="63" target="60">
                    <mxGeometry width="100" relative="1" as="geometry">
                        <mxPoint x="3210" y="320" as="sourcePoint"/>
                        <mxPoint x="3310" y="320" as="targetPoint"/>
                        <Array as="points"/>
                    </mxGeometry>
                </mxCell>
                <mxCell id="67" value="" style="edgeStyle=segmentEdgeStyle;endArrow=classic;html=1;curved=0;rounded=0;endSize=8;startSize=8;sourcePerimeterSpacing=0;targetPerimeterSpacing=0;exitX=0.5;exitY=1;exitDx=0;exitDy=0;" edge="1" parent="1">
                    <mxGeometry width="100" relative="1" as="geometry">
                        <mxPoint x="2310" y="260" as="sourcePoint"/>
                        <mxPoint x="3120" y="443" as="targetPoint"/>
                        <Array as="points">
                            <mxPoint x="2310" y="443"/>
                        </Array>
                    </mxGeometry>
                </mxCell>
                <mxCell id="68" value="输入课程信息" style="shape=parallelogram;perimeter=parallelogramPerimeter;whiteSpace=wrap;html=1;fixedSize=1;fillColor=#d5e8d4;strokeColor=#82b366;" vertex="1" parent="1">
                    <mxGeometry x="550" y="570" width="120" height="60" as="geometry"/>
                </mxCell>
                <mxCell id="69" value="" style="edgeStyle=none;orthogonalLoop=1;jettySize=auto;html=1;entryX=0;entryY=0.5;entryDx=0;entryDy=0;" edge="1" parent="1" target="68">
                    <mxGeometry width="100" relative="1" as="geometry">
                        <mxPoint x="480" y="599.38" as="sourcePoint"/>
                        <mxPoint x="580" y="599.38" as="targetPoint"/>
                        <Array as="points"/>
                    </mxGeometry>
                </mxCell>
                <mxCell id="71" value="" style="edgeStyle=none;orthogonalLoop=1;jettySize=auto;html=1;entryX=0;entryY=0.5;entryDx=0;entryDy=0;" edge="1" parent="1" source="68" target="72">
                    <mxGeometry width="100" relative="1" as="geometry">
                        <mxPoint x="670" y="599.38" as="sourcePoint"/>
                        <mxPoint x="770" y="599.38" as="targetPoint"/>
                        <Array as="points"/>
                    </mxGeometry>
                </mxCell>
                <mxCell id="72" value="上传内容到IPFS" style="whiteSpace=wrap;html=1;" vertex="1" parent="1">
                    <mxGeometry x="730" y="570" width="120" height="60" as="geometry"/>
                </mxCell>
                <mxCell id="75" value="IPFS存储" style="shape=cylinder3;whiteSpace=wrap;html=1;boundedLbl=1;backgroundOutline=1;size=15;fillColor=#f8cecc;strokeColor=#b85450;" vertex="1" parent="1">
                    <mxGeometry x="990" y="460" width="60" height="80" as="geometry"/>
                </mxCell>
                <mxCell id="76" value="" style="edgeStyle=segmentEdgeStyle;endArrow=classic;html=1;curved=0;rounded=0;endSize=8;startSize=8;sourcePerimeterSpacing=0;targetPerimeterSpacing=0;exitX=1;exitY=0;exitDx=0;exitDy=0;entryX=0;entryY=0.5;entryDx=0;entryDy=0;entryPerimeter=0;" edge="1" parent="1" source="72" target="75">
                    <mxGeometry width="100" relative="1" as="geometry">
                        <mxPoint x="950" y="590" as="sourcePoint"/>
                        <mxPoint x="1050" y="500" as="targetPoint"/>
                        <Array as="points">
                            <mxPoint x="920" y="570"/>
                            <mxPoint x="920" y="500"/>
                        </Array>
                    </mxGeometry>
                </mxCell>
                <mxCell id="78" value="" style="edgeStyle=segmentEdgeStyle;endArrow=classic;html=1;curved=0;rounded=0;endSize=8;startSize=8;sourcePerimeterSpacing=0;targetPerimeterSpacing=0;exitX=1;exitY=1;exitDx=0;exitDy=0;entryX=0;entryY=0.5;entryDx=0;entryDy=0;" edge="1" parent="1" target="79">
                    <mxGeometry width="100" relative="1" as="geometry">
                        <mxPoint x="850" y="630" as="sourcePoint"/>
                        <mxPoint x="1090" y="720" as="targetPoint"/>
                        <Array as="points">
                            <mxPoint x="920" y="630"/>
                            <mxPoint x="920" y="720"/>
                        </Array>
                    </mxGeometry>
                </mxCell>
                <mxCell id="79" value="设置YDT价格" style="whiteSpace=wrap;html=1;" vertex="1" parent="1">
                    <mxGeometry x="980" y="690" width="120" height="60" as="geometry"/>
                </mxCell>
                <mxCell id="80" value="" style="edgeStyle=none;orthogonalLoop=1;jettySize=auto;html=1;exitX=1;exitY=0.5;exitDx=0;exitDy=0;entryX=0;entryY=0.5;entryDx=0;entryDy=0;" edge="1" parent="1" source="79" target="81">
                    <mxGeometry width="100" relative="1" as="geometry">
                        <mxPoint x="1120" y="720" as="sourcePoint"/>
                        <mxPoint x="1200" y="720" as="targetPoint"/>
                        <Array as="points"/>
                    </mxGeometry>
                </mxCell>
                <mxCell id="81" value="调用createCourse" style="whiteSpace=wrap;html=1;" vertex="1" parent="1">
                    <mxGeometry x="1180" y="690" width="120" height="60" as="geometry"/>
                </mxCell>
                <mxCell id="82" value="" style="edgeStyle=segmentEdgeStyle;endArrow=classic;html=1;curved=0;rounded=0;endSize=8;startSize=8;sourcePerimeterSpacing=0;targetPerimeterSpacing=0;exitX=1;exitY=0;exitDx=0;exitDy=0;entryX=0;entryY=0.5;entryDx=0;entryDy=0;entryPerimeter=0;" edge="1" parent="1" target="83">
                    <mxGeometry width="100" relative="1" as="geometry">
                        <mxPoint x="1210" y="690" as="sourcePoint"/>
                        <mxPoint x="1440" y="640" as="targetPoint"/>
                        <Array as="points">
                            <mxPoint x="1360" y="690"/>
                            <mxPoint x="1360" y="640"/>
                        </Array>
                    </mxGeometry>
                </mxCell>
                <mxCell id="83" value="课程合约" style="shape=cylinder3;whiteSpace=wrap;html=1;boundedLbl=1;backgroundOutline=1;size=15;fillColor=#f8cecc;strokeColor=#b85450;" vertex="1" parent="1">
                    <mxGeometry x="1460" y="600" width="60" height="80" as="geometry"/>
                </mxCell>
                <mxCell id="84" value="" style="edgeStyle=none;orthogonalLoop=1;jettySize=auto;html=1;exitX=1;exitY=0.5;exitDx=0;exitDy=0;entryX=0;entryY=0.5;entryDx=0;entryDy=0;entryPerimeter=0;" edge="1" parent="1" source="25" target="85">
                    <mxGeometry width="100" relative="1" as="geometry">
                        <mxPoint x="1680" y="130" as="sourcePoint"/>
                        <mxPoint x="1760" y="120" as="targetPoint"/>
                        <Array as="points"/>
                    </mxGeometry>
                </mxCell>
                <mxCell id="85" value="代币合约" style="shape=cylinder3;whiteSpace=wrap;html=1;boundedLbl=1;backgroundOutline=1;size=15;fillColor=#f8cecc;strokeColor=#b85450;" vertex="1" parent="1">
                    <mxGeometry x="1760" y="80" width="60" height="80" as="geometry"/>
                </mxCell>
                <mxCell id="86" value="" style="edgeStyle=segmentEdgeStyle;endArrow=classic;html=1;curved=0;rounded=0;endSize=8;startSize=8;sourcePerimeterSpacing=0;targetPerimeterSpacing=0;exitX=1;exitY=1;exitDx=0;exitDy=0;entryX=0;entryY=0.5;entryDx=0;entryDy=0;" edge="1" parent="1" source="81" target="87">
                    <mxGeometry width="100" relative="1" as="geometry">
                        <mxPoint x="1340" y="770" as="sourcePoint"/>
                        <mxPoint x="1440" y="810" as="targetPoint"/>
                        <Array as="points">
                            <mxPoint x="1360" y="750"/>
                            <mxPoint x="1360" y="810"/>
                        </Array>
                    </mxGeometry>
                </mxCell>
                <mxCell id="87" value="是否成功" style="rhombus;whiteSpace=wrap;html=1;fillColor=#fff2cc;strokeColor=#d6b656;" vertex="1" parent="1">
                    <mxGeometry x="1440" y="770" width="80" height="80" as="geometry"/>
                </mxCell>
                <mxCell id="89" value="" style="edgeStyle=none;orthogonalLoop=1;jettySize=auto;html=1;exitX=1;exitY=0.5;exitDx=0;exitDy=0;entryX=0;entryY=0.5;entryDx=0;entryDy=0;" edge="1" parent="1" target="90">
                    <mxGeometry width="100" relative="1" as="geometry">
                        <mxPoint x="1520" y="810.37" as="sourcePoint"/>
                        <mxPoint x="1600" y="810" as="targetPoint"/>
                        <Array as="points"/>
                    </mxGeometry>
                </mxCell>
                <mxCell id="90" value="课程上线" style="whiteSpace=wrap;html=1;" vertex="1" parent="1">
                    <mxGeometry x="1610" y="780" width="120" height="60" as="geometry"/>
                </mxCell>
                <mxCell id="91" value="是" style="text;html=1;align=center;verticalAlign=middle;resizable=0;points=[];autosize=1;strokeColor=none;fillColor=none;" vertex="1" parent="1">
                    <mxGeometry x="1530" y="780" width="40" height="30" as="geometry"/>
                </mxCell>
                <mxCell id="92" value="讲师流程结束" style="rounded=1;whiteSpace=wrap;html=1;fillColor=#ffe6cc;strokeColor=#d79b00;" vertex="1" parent="1">
                    <mxGeometry x="1820" y="780" width="120" height="60" as="geometry"/>
                </mxCell>
                <mxCell id="93" value="" style="edgeStyle=none;orthogonalLoop=1;jettySize=auto;html=1;entryX=0;entryY=0.5;entryDx=0;entryDy=0;" edge="1" parent="1" target="92">
                    <mxGeometry width="100" relative="1" as="geometry">
                        <mxPoint x="1730" y="810" as="sourcePoint"/>
                        <mxPoint x="1830" y="810" as="targetPoint"/>
                        <Array as="points"/>
                    </mxGeometry>
                </mxCell>
                <mxCell id="94" value="" style="ellipse;whiteSpace=wrap;html=1;" vertex="1" parent="1">
                    <mxGeometry x="1800" y="510" width="120" height="80" as="geometry"/>
                </mxCell>
            </root>
        </mxGraphModel>
    </diagram>
</mxfile>